/* XPM */
static char *bitzeny128[] = {
/* columns rows colors chars-per-pixel */
"128 128 80 1 ",
"  c None",
". c #3F3B3E",
"X c #403C3F",
"o c #413D40",
"O c #423E41",
"+ c #433F42",
"@ c #444043",
"# c #454144",
"$ c #464245",
"% c #474346",
"& c #484447",
"* c #494548",
"= c #4A4648",
"- c #4A4649",
"; c #4B474A",
": c #4C484A",
"> c #4C484B",
", c #4D494B",
"< c #4D494C",
"1 c #4E4A4D",
"2 c #4F4B4E",
"3 c #504C4F",
"4 c #514D50",
"5 c #524E51",
"6 c #534F51",
"7 c #534F52",
"8 c #545053",
"9 c #545054",
"0 c #555154",
"q c #565255",
"w c #575356",
"e c #585457",
"r c #5A5658",
"t c #5A5659",
"y c #5B575A",
"u c #5C585A",
"i c #5D595B",
"p c #5D595C",
"a c #5E5A5D",
"s c #5F5B5D",
"d c #5F5B5E",
"f c #605C5E",
"g c #605C5F",
"h c #615D60",
"j c #625E60",
"k c #635F62",
"l c #646062",
"z c #656163",
"x c #656164",
"c c #666264",
"v c #676365",
"b c #676366",
"n c #686466",
"m c #696567",
"M c #696568",
"N c #6B6769",
"B c #6B676A",
"V c #6C686A",
"C c #6D696B",
"Z c #6E6A6C",
"A c #706C6E",
"S c #706C6F",
"D c #716D70",
"F c #726E70",
"G c #726E71",
"H c #747072",
"J c #757173",
"K c #757174",
"L c #767274",
"P c #777375",
"I c #797577",
"U c #797578",
"Y c #7A7678",
"T c #7B7779",
"R c #7B777A",
"E c #7C787A",
"W c #7C787B",
"Q c #7D797B",
"! c #7F7B7D",
"~ c #807C7E",
/* pixels */
"                                                       ..................                                                       ",
"                                                  ............................                                                  ",
"                                              ....................................                                              ",
"                                           ..........................................                                           ",
"                                        ................................................                                        ",
"                                      ....................................................                                      ",
"                                    ........................................................                                    ",
"                                  ............................................................                                  ",
"                                ................................................................                                ",
"                              ....................................................................                              ",
"                             ......................................................................                             ",
"                           ..........................................................................                           ",
"                          ............................................................................                          ",
"                         ..............................................................................                         ",
"                        .................................................................................                       ",
"                                                                         .................................                      ",
"                                                                             ..............................                     ",
"                                                                                 ...........................                    ",
"                                                                                   ..........................                   ",
"                                                                                     .........................                  ",
"                                                                                       ........................                 ",
"                                                                                         .......................                ",
"                                                                                           ......................               ",
"                                                                                            ......................              ",
"                                                                                              ....................              ",
"                                                                                               ....................             ",
"            ....................                                                                ....................            ",
"           ....................                                                                  ....................           ",
"           ...................                                                                    ...................           ",
"          ...................                                                                      ...................          ",
"         ...................                                                                        ...................         ",
"         ..................                                                                          ..................         ",
"        ..................                                                                            ..................        ",
"        .................                                                                              .................        ",
"       .................                                                                                XXXXXXXXXXXXXXXXX       ",
"       .................                                                                                XXXXXXXXXXXXXXXXX       ",
"      .................                                                                                  XXXXXXXXXXXXXXXXX      ",
"      ................                                                                                    XXXXXXXXXXXXXXXX      ",
"     .................                          ~~~~~~~~~~~~~~~~~~~~~~~~~~~~~~~~                          XXXXXXXXXXXXXXXXX     ",
"     ................                        TREEEEEEEEEEEEEEEEEEEEEEEEEEEEEEEEEERT                        XXXXXXXXXXXXXXXX     ",
"    ................                       LLLLLLLLLLLLLLLLLLLLLLLLLLLLLLLLLLLLLLLLLK                       XXXXXXXXXXXXXXXX    ",
"    ................                      DDDDDDDDDDDDDDDDDDDDDDDDDDDDDDDDDDDDDDDDDDDD                      XXXXXXXXXXXXXXXX    ",
"    ...............                      CCCCCCCCCCCCCCCCCCCCCCCCCCCCCCCCCCCCCCCCCCCCCC                      XXXXXXXXXXXXXXX    ",
"   ................                     mmmmmmmmmmmmmmmmmmmmmmmmmmmmmmmmmmmmmmmmmmmmmmmm                     XXXXXXXXXXXXXXXX   ",
"   ...............                     zzzzzzzzzzzzzzzzzzzzzzzzzzzzzzzzzzzzzzzzzzzzzzzzz                      ooooooooooooooo   ",
"   ...............                     hhhhhhhhhhhhhhhhhhhhhhhhhhhhhhhhhhhhhhhhhhhhhhhhhh                     ooooooooooooooo   ",
"  ................                     aaaaaaaaaaaaaaaaaaaaaaaaaaaaaaaaaaaaaaaaaaaaaaaaaa                     oooooooooooooooo  ",
"  ...............                     yyyyyyyyyyyyyyyyyyyyyyyyyyyyyyyyyyyyyyyyyyyyyyyyyyy                      ooooooooooooooo  ",
"  ...............                     eeeeeeeeeeeeeeeeeeeeeeeeeeeeeeeeeeeeeeeeeeeeeeeeeeee                     ooooooooooooooo  ",
"  ...............                     0000000000000000000000000000000000000000000000000000                     OOOOOOOOOOOOOOO  ",
" ...............                      7777777777777777777777777777777777777777777777777777                      OOOOOOOOOOOOOOO ",
" ...............                      4444444444444444444444444444444444444444444444444444                      OOOOOOOOOOOOOOO ",
" ...............                      2222222222222222222222222222222222222222222222222222                      OOOOOOOOOOOOOOO ",
" ...............                      <<<<<<<<<<<<<<<                      <<<<<<<<<<<<<<<                      +++++++++++++++ ",
" ..............                       ;;;;;;;;;;;;;;;                      ;;;;;;;;;;;;;;;                       ++++++++++++++ ",
"...............                       ---------------                      ---------------                       +++++++++++++++",
"...............                       ***************                      ***************                       @@@@@@@@@@@@@@@",
"...............                       %%%%%%%%%%%%%%%                      %%%%%%%%%%%%%%%                       @@@@@@@@@@@@@@@",
"...............                       $$$$$$$$$$$$$$$                      $$$$$$$$$$$$$$$                       @@@@@@@@@@@@@@@",
"...............                       ###############                      ###############                       ###############",
"XXXXXXXXXXXXXXX                       @@@@@@@@@@@@@@@                      @@@@@@@@@@@@@@@                        ##############",
"XXXXXXXXXXXXXX                        @@@@@@@@@@@@@@@                      @@@@@@@@@@@@@@@                        $$$$$$$$$$$$$$",
"XXXXXXXXXXXXXX                        +++++++++++++++                      +++++++++++++++                        $$$$$$$$$$$$$$",
"XXXXXXXXXXXXXX                        OOOOOOOOOOOOOOO                      OOOOOOOOOOOOOOO                        %%%%%%%%%%%%%%",
"XXXXXXXXXXXXXX                        OOOOOOOOOOOOOOO                      OOOOOOOOOOOOOOO                        %%%%%%%%%%%%%%",
"XXXXXXXXXXXXXX                        ooooooooooooooo                      ooooooooooooooo                        &&&&&&&&&&&&&&",
"XXXXXXXXXXXXXX                        ooooooooooooooo                      ooooooooooooooo                        **************",
"XXXXXXXXXXXXXX                        ooooooooooooooo                      ooooooooooooooo                        **************",
"XXXXXXXXXXXXXXX                       XXXXXXXXXXXXXXX                      XXXXXXXXXXXXXXX                       ---------------",
"XXXXXXXXXXXXXXX                       XXXXXXXXXXXXXXX                      XXXXXXXXXXXXXXX                       ;;;;;;;;;;;;;;;",
"ooooooooooooooo                       XXXXXXXXXXXXXXX                      XXXXXXXXXXXXXXX                       :::::::::::::::",
"ooooooooooooooo                       XXXXXXXXXXXXXXX                      XXXXXXXXXXXXXXX                       >>>>>>>>>>>>>>>",
"ooooooooooooooo                       XXXXXXXXXXXXXXX                      XXXXXXXXXXXXXXX                       <<<<<<<<<<<<<<<",
" oooooooooooooo                       ...............                      ...............                       11111111111111 ",
" oooooooooooooo                       ...............                      ...............                       22222222222222 ",
" OOOOOOOOOOOOOOO                      ...............                      ...............                      333333333333333 ",
" OOOOOOOOOOOOOOO                      ....................................................                      444444444444444 ",
" OOOOOOOOOOOOOOO                      ....................................................                      555555555555555 ",
"  OOOOOOOOOOOOOO                      ....................................................                      77777777777777  ",
"  +++++++++++++++                     ....................................................                     888888888888888  ",
"  +++++++++++++++                     ....................................................                     qqqqqqqqqqqqqqq  ",
"  +++++++++++++++                      ..................................................                      wwwwwwwwwwwwwww  ",
"   @@@@@@@@@@@@@@@                     ..................................................                     eeeeeeeeeeeeeee   ",
"   @@@@@@@@@@@@@@@                     ..................................................                     rrrrrrrrrrrrrrr   ",
"   @@@@@@@@@@@@@@@@                     ................................................                     yyyyyyyyyyyyyyyy   ",
"    ###############                      ..............................................                      iiiiiiiiiiiiiii    ",
"    ################                     .............................................                      aaaaaaaaaaaaaaaa    ",
"    $$$$$$$$$$$$$$$$                       ..........................................                       gfffffffffffffff    ",
"     $$$$$$$$$$$$$$$$                       ........................................                       jjjjjjjjjjjjjjjj     ",
"     %%%%%%%%%%%%%%%%                          ..................................                          lllllllllllllllk     ",
"      %%%%%%%%%%%%%%%%                                                                                    cxxxxxxxxxxxxxxx      ",
"      &&&&&&&&&&&&&&&&                                                                                    vvvvvvvvvvvvvvbv      ",
"       ****************                                                                                  MMMMMMMMMMMMMMMM       ",
"       *================                                                                                BNNNNNNNNNNNNNNBN       ",
"        -----------------                                                                              ZZZZZZZZZZZZZZZZZ        ",
"        ;;;;;;;;;;;;;;;;;                                                                              AAAAAAAAAAAAAAAAA        ",
"         :::::::::::::::::                                                                            GFGGGGGGGGGGGGGGF         ",
"         >,,,,,,,,,,,,,,,>,                                                                          HHHHHHHHHHHHHHHHHH         ",
"          <<<<<<<<<<<<<<<<<<                                                                        PPPPPPPPPPPPPPPPPP          ",
"           111111111111111111                                                                      UIIIIIIIIIIIIIIIII           ",
"           2222222222222222222                                                                    QWWWWWWWWWWWWWWWWWE           ",
"            3333333333333333333                                                                  !!!!!!!!!!!!!!!!!!!            ",
"             4444444444444444444                                                                                                ",
"              55555555555555555556                                                                                              ",
"              777777777777777777777                                                                                             ",
"               809899999999999999880                                                                                            ",
"                qqqqqqqqqqqqqqqqqqqqqq                                                                                          ",
"                 wwwwwwwwwwwwwwwwwwwwwww                                                                                        ",
"                  eeeeeeeeeeeeeeeeeeeeeee                                                                                       ",
"                   rtrrrrrrrrrrrrrrrrrrrrrt                                                                                     ",
"                    yyyyyyyyyyyyyyyyyyyyyyyyyu                                                                                  ",
"                     ippiiiiiiiiiiiiiiiiiiiiiippp                                                                               ",
"                      aaaaaaaaaaaaaaaaaaaaaaaaaaaasd                                                                            ",
"                       fggggggggggggggggggggggggggggggggg                                                                       ",
"                         jjjjjjjjjjjjjjjjjjjjjjjjjjjjjjjjjjjjjjjjjjjjjjjjjjjjjjjjjjjjjjjjjjjjjjjjjjjjjj                         ",
"                          kllllllllllllllllllllllllllllllllllllllllllllllllllllllllllllllllllllllllllk                          ",
"                           xccccccccccccccccccccccccccccccccccccccccccccccccccccccccccccccccccccccccx                           ",
"                             vnnbbbbbbbbbbbbbbbbbbbbbbbbbbbbbbbbbbbbbbbbbbbbbbbbbbbbbbbbbbbbbbbbnnb                             ",
"                              mMMMMMMMMMMMMMMMMMMMMMMMMMMMMMMMMMMMMMMMMMMMMMMMMMMMMMMMMMMMMMMMMMMM                              ",
"                                NBVVVVVVVVVVVVVVVVVVVVVVVVVVVVVVVVVVVVVVVVVVVVVVVVVVVVVVVVVVVVBN                                ",
"                                  ZZZZZZZZZZZZZZZZZZZZZZZZZZZZZZZZZZZZZZZZZZZZZZZZZZZZZZZZZZZZ                                  ",
"                                    AASSSSSSSSSSSSSSSSSSSSSSSSSSSSSSSSSSSSSSSSSSSSSSSSSSSSSA                                    ",
"                                      GGGGGGGGGGGGGGGGGGGGGGGGGGGGGGGGGGGGGGGGGGGGGGGGGGGG                                      ",
"                                        HHJJJJJJJJJJJJJJJJJJJJJJJJJJJJJJJJJJJJJJJJJJJJHH                                        ",
"                                           PPPPPPPPPPPPPPPPPPPPPPPPPPPPPPPPPPPPPPPPPP                                           ",
"                                              IIUYYYYYYYYYYYYYYYYYYYYYYYYYYYYYYYII                                              ",
"                                                  EWQQQQQQQQQQQQQQQQQQQQQQQQWE                                                  ",
"                                                       !!!!!!!!!!!!!!!!!!                                                       "
};
