/* XPM */
static char *bitzeny32[] = {
/* columns rows colors chars-per-pixel */
"32 32 65 1 ",
"  c None",
". c #3F3B3E",
"X c #403C3F",
"o c #413D40",
"O c #423E41",
"+ c #433F42",
"@ c #444042",
"# c #444043",
"$ c #454144",
"% c #464245",
"& c #474346",
"* c #484447",
"= c #4A4649",
"- c #4B474A",
"; c #4C484B",
": c #4D494B",
"> c #4D494C",
", c #4F4B4D",
"< c #4F4B4E",
"1 c #504C4F",
"2 c #514D4F",
"3 c #514D50",
"4 c #534F51",
"5 c #534F52",
"6 c #545053",
"7 c #555154",
"8 c #565254",
"9 c #585456",
"0 c #585457",
"q c #5A5659",
"w c #5B5759",
"e c #5C585A",
"r c #5D595C",
"t c #5E5A5C",
"y c #605C5E",
"u c #605C5F",
"i c #615D5F",
"p c #615D60",
"a c #625E60",
"s c #625E61",
"d c #635F61",
"f c #635F62",
"g c #646062",
"h c #646063",
"j c #656163",
"k c #666265",
"l c #676365",
"z c #686466",
"x c #686467",
"c c #696567",
"v c #6C686B",
"b c #6D696B",
"n c #6F6B6D",
"m c #6F6B6E",
"M c #706C6E",
"N c #716D6F",
"B c #716D70",
"V c #747073",
"C c #767274",
"Z c #777375",
"A c #787477",
"S c #797577",
"D c #7A7678",
"F c #7A7679",
"G c #7D797B",
/* pixels */
"            ........            ",
"         ..............         ",
"       ..................       ",
"       ...................      ",
"                    .......     ",
"                      ......    ",
"                        .....   ",
"  .....                  .....  ",
"  ....                    ....  ",
" ....                      XXXX ",
" ....     vnMMMMMMMMnv     XXXX ",
" ...      yuyyyyyyyyuy      ooo ",
"....      666777777666      OOOO",
"....      ;;:      ;;;      ++++",
"....      &&&      &&&      ####",
"XXXX      +++      +++      %%%%",
"XXXX      ooo      ooo      ****",
"XXXo      XXX      XXX      ----",
"oooo      ...      ...      <,,,",
"OOOO      ............      5554",
" @@@      ............      009 ",
" $$$$     ............     tttr ",
" &&&&                      jhhg ",
"  ====                    bvbv  ",
"  ;>>>>                  ZCCCV  ",
"   13323                 GGG    ",
"    77778                       ",
"     qwwwwe                     ",
"      upppipasdffffffffff       ",
"       lxccccxxxxxxxxcczk       ",
"         nNBBBBBBBBBBNm         ",
"            ADDFFDDS            "
};
