/* XPM */
static char *bitzeny16[] = {
/* columns rows colors chars-per-pixel */
"16 16 34 1 ",
"  c None",
". c #3F3B3E",
"X c #403C3F",
"o c #413D40",
"O c #423E41",
"+ c #444043",
"@ c #454144",
"# c #484447",
"$ c #494548",
"% c #4A4649",
"& c #4E4A4D",
"* c #4F4B4E",
"= c #504C4F",
"- c #514D4F",
"; c #514D50",
": c #524E51",
"> c #555154",
", c #575355",
"< c #585457",
"1 c #595558",
"2 c #5A5659",
"3 c #5B575A",
"4 c #625E60",
"5 c #646063",
"6 c #656164",
"7 c #676365",
"8 c #676366",
"9 c #686466",
"0 c #686467",
"q c #6A6669",
"w c #716D6F",
"e c #736F71",
"r c #747072",
"t c #777376",
/* pixels */
"     ......     ",
"    .........   ",
"           ...  ",
"  .         ... ",
" ..          XX ",
"..   687786   oo",
"..   ;:>>:;   OO",
"..   @@  @@   @@",
"XX   oo  oo   %%",
"OO   ......   ;-",
"++   ......   32",
" #$          q0 ",
" &*=         t  ",
"  ,<1           ",
"   456799997    ",
"     werrew     "
};
