/* XPM */
static char *bitzeny64[] = {
/* columns rows colors chars-per-pixel */
"64 64 62 1 ",
"  c None",
". c #3F3B3E",
"X c #403C3F",
"o c #413D40",
"O c #423E41",
"+ c #433F41",
"@ c #433F42",
"# c #444043",
"$ c #454144",
"% c #464244",
"& c #464245",
"* c #474345",
"= c #484447",
"- c #494548",
"; c #4A4649",
": c #4B474A",
"> c #4C484B",
", c #4E4A4C",
"< c #4E4A4D",
"1 c #4F4B4E",
"2 c #504C4E",
"3 c #504C4F",
"4 c #524E50",
"5 c #524E51",
"6 c #545052",
"7 c #545053",
"8 c #565255",
"9 c #575356",
"0 c #595558",
"q c #5A5658",
"w c #5C585A",
"e c #5C585B",
"r c #5D595B",
"t c #5D595C",
"y c #5F5B5D",
"u c #5F5B5E",
"i c #605C5E",
"p c #605C5F",
"a c #635F61",
"s c #635F62",
"d c #666264",
"f c #666265",
"g c #676365",
"h c #6A6668",
"j c #6A6669",
"k c #6B6769",
"l c #6E6A6C",
"z c #6F6B6D",
"x c #6F6B6E",
"c c #726E71",
"v c #736F71",
"b c #736F72",
"n c #747072",
"m c #777375",
"M c #787476",
"N c #787477",
"B c #797577",
"V c #7C787A",
"C c #7C787B",
"Z c #7D797B",
"A c #7D797C",
"S c #7E7A7C",
/* pixels */
"                          ............                          ",
"                      ....................                      ",
"                    ........................                    ",
"                 ..............................                 ",
"                ................................                ",
"              ....................................              ",
"             ......................................             ",
"                                   ..................           ",
"                                        ..............          ",
"                                          .............         ",
"                                            ............        ",
"                                              ...........       ",
"                                               ..........       ",
"      .........                                 ..........      ",
"     ..........                                  ..........     ",
"     .........                                    .........     ",
"    .........                                      .........    ",
"   .........                                        XXXXXXXXX   ",
"   ........                                          XXXXXXXX   ",
"   ........            VCCCCCCCCCCCCCCCCV            XXXXXXXX   ",
"  ........           cnnnnnnnnnnnnnnnnnnnnc           XXXXXXXX  ",
"  ........          hkkkkkkkkkkkkkkkkkkkkkkh          XXXXXXXX  ",
" ........           ssssssssssssssssssssssss           oooooooo ",
" ........          ereeeeeeeeeeeeeeeeeeeeeere          oooooooo ",
" .......           99999999999999999999999999           ooooooo ",
" .......           55555555555555555555555555           OOOOOOO ",
"........           <<<<<<<1          1<<<<<<<           ++++++++",
"........           :::::::            :::::::           @@@@@@@@",
".......            =======            =======            #######",
".......            &&&&&&&            &&&&&&&            $$$$$$$",
"XXXXXXX            #######            #######            %%%%%%%",
"XXXXXXX            @@@@@@@            @@@@@@@            *******",
"XXXXXXX            OOOOOOO            OOOOOOO            =======",
"XXXXXXX            ooooooo            ooooooo            -------",
"XXXXXXX            XXXXXXX            XXXXXXX            ;;;;;;;",
"ooooooo            XXXXXXX            XXXXXXX            >>>>>>>",
"oooooooo           .......            .......           <,,,,,,,",
"oooooooo           ........          ........           22222222",
" OOOOOOO           ..........................           4444444 ",
" +++++++           ..........................           7777777 ",
" @@@@@@@@          ..........................          88888888 ",
" ########           ........................           00000000 ",
"  $$$$$$$           ........................           eeeeeee  ",
"  %%%%%%%%           ......................           uuuuuuuu  ",
"   *******             ..................             aaaaaaa   ",
"   ========                                          ffffffff   ",
"   ---------                                        kjjjjjjjh   ",
"    ;;;;;;;;:                                      xzzzzzzzz    ",
"     >>>>>>>>                                      vvvvvvvv     ",
"     ,<<<<<<,<                                    MMMMMMMMM     ",
"      232222323                                  SAAAAAAAZ      ",
"       455555545                                                ",
"       67777777777                                              ",
"        88888888889                                             ",
"         00000000000q                                           ",
"          weeeeeeeeeeeet                                        ",
"           yuuuuuuuuuuuuuip                                     ",
"             aaaaaaaaaaaaaaaaaaaaaaaaaaaaaaaaaaaaaa             ",
"              dggggggggggggggggggggggggggggggggggd              ",
"                jkkkkkkkkkkkkkkkkkkkkkkkkkkkkkkj                ",
"                 lzzzzzzzzzzzzzzzzzzzzzzzzzzzzl                 ",
"                    vbbbbbbbbbbbbbbbbbbbbbbvc                   ",
"                      mMMNBBBBBBBBBBBBNMMm                      ",
"                          ZZASSSSSSAZZ                          "
};
